<?xml version="1.0" encoding="utf-8"?><svg xmlns="http://www.w3.org/2000/svg"><symbol viewBox="0 0 24 24" id="add"><path d="M17 12L7 12M12 17L12 7"/><circle cx="12" cy="12" r="10"/></symbol><symbol viewBox="0 0 24 24" id="plus"><path d="M20 12L4 12M12 4L12 20"/></symbol><symbol viewBox="0 0 24 24" id="person"><path d="M4,20 C4,17 8,17 10,15 C11,14 8,14 8,9 C8,5.667 9.333,4 12,4 C14.667,4 16,5.667 16,9 C16,14 13,14 14,15 C16,17 20,17 20,20"/></symbol><symbol viewBox="0 0 24 24" id="power"><path d="M12 2L12 11M18.363961 5.63603897C21.8786797 9.15075759 21.8786797 14.8492424 18.363961 18.363961 14.8492424 21.8786797 9.15075759 21.8786797 5.63603897 18.363961 2.12132034 14.8492424 2.12132034 9.15075759 5.63603897 5.63603897"/></symbol><symbol viewBox="0 0 24 24" id="settings"><path d="M5.03506429,12.7050339 C5.01187484,12.4731696 5,12.2379716 5,12 C5,11.7620284 5.01187484,11.5268304 5.03506429,11.2949661 L3.20577137,9.23205081 L5.20577137,5.76794919 L7.9069713,6.32070904 C8.28729123,6.0461342 8.69629298,5.80882212 9.12862533,5.61412402 L10,3 L14,3 L14.8713747,5.61412402 C15.303707,5.80882212 15.7127088,6.0461342 16.0930287,6.32070904 L18.7942286,5.76794919 L20.7942286,9.23205081 L18.9649357,11.2949661 C18.9881252,11.5268304 19,11.7620284 19,12 C19,12.2379716 18.9881252,12.4731696 18.9649357,12.7050339 L20.7942286,14.7679492 L18.7942286,18.2320508 L16.0930287,17.679291 C15.7127088,17.9538658 15.303707,18.1911779 14.8713747,18.385876 L14,21 L10,21 L9.12862533,18.385876 C8.69629298,18.1911779 8.28729123,17.9538658 7.9069713,17.679291 L5.20577137,18.2320508 L3.20577137,14.7679492 L5.03506429,12.7050339 Z"/><circle cx="12" cy="12" r="1"/></symbol><symbol viewBox="0 0 24 24" id="edit"><path d="M18.4142136 4.41421356L19.5857864 5.58578644C20.366835 6.36683502 20.366835 7.63316498 19.5857864 8.41421356L8 20 4 20 4 16 15.5857864 4.41421356C16.366835 3.63316498 17.633165 3.63316498 18.4142136 4.41421356zM14 6L18 10"/></symbol><symbol viewBox="0 0 24 24" id="info"><path d="M12,12 L12,15"/><line x1="12" y1="9" x2="12" y2="9"/><circle cx="12" cy="12" r="10"/></symbol><symbol viewBox="0 0 24 24" id="chevrons-right"><polyline points="13 7 18 12 13 17 13 17"/><polyline points="7 7 12 12 7 17 7 17"/></symbol></svg>